<svg id="Component_82_73" data-name="Component 82 – 73" xmlns="http://www.w3.org/2000/svg" width="36" height="36" viewBox="0 0 36 36">
  <g id="Group_233" data-name="Group 233" transform="translate(11329 12400)">
    <path id="Path_589" data-name="Path 589" d="M4,0H32a4,4,0,0,1,4,4V32a4,4,0,0,1-4,4H4a4,4,0,0,1-4-4V4A4,4,0,0,1,4,0Z" transform="translate(-11329 -12400)" fill="#0099fb"/>
    <g id="icon-24-chevron_down" transform="translate(-11323 -12394)">
      <rect id="Bounding_box" data-name="Bounding box" width="24" height="24" fill="rgba(255,255,255,0)"/>
      <path id="Icon_color" data-name="Icon color" d="M6.718,6.708a.75.75,0,0,1-.53.22h-.38a.77.77,0,0,1-.53-.22L.148,1.568a.5.5,0,0,1,0-.71l.71-.71a.49.49,0,0,1,.7,0L6,4.6l4.44-4.45a.5.5,0,0,1,.71,0l.7.71a.5.5,0,0,1,0,.71Z" transform="translate(6.002 9.072)" fill="#fafafa"/>
    </g>
  </g>
</svg>
