<svg xmlns="http://www.w3.org/2000/svg" xmlns:xlink="http://www.w3.org/1999/xlink" width="24" height="24" viewBox="0 0 24 24">
  <defs>
    <clipPath id="clip-path">
      <rect width="24" height="24" fill="none"/>
    </clipPath>
  </defs>
  <g id="ico_24_media_editing_video_horizontal_outlined" data-name="ico / 24 / media &amp; editing / video_horizontal_outlined" clip-path="url(#clip-path)">
    <rect id="Bounding_box" data-name="Bounding box" width="24" height="24" fill="rgba(255,255,255,0)"/>
    <path id="Icon_color" data-name="Icon color" d="M18,16H2a2,2,0,0,1-2-2V2A2,2,0,0,1,2,0H18a2,2,0,0,1,2,2V14A2,2,0,0,1,18,16ZM2,2V14H18V2Zm6.75,9.349A.749.749,0,0,1,8,10.6V5.4a.75.75,0,0,1,1.17-.62l3.89,2.6a.741.741,0,0,1,0,1.24l-3.89,2.6A.749.749,0,0,1,8.75,11.349Z" transform="translate(2 4)"/>
  </g>
</svg>
