<svg id="icon-24-seo" xmlns="http://www.w3.org/2000/svg" width="24" height="24" viewBox="0 0 24 24">
  <rect id="Rectangle_7275" data-name="Rectangle 7275" width="24" height="24" fill="rgba(255,255,255,0)"/>
  <g id="seo-svgrepo-com" transform="translate(-9 -86.4)">
    <g id="Group_956" data-name="Group 956" transform="translate(11 91.4)">
      <path id="Path_945" data-name="Path 945" d="M28.984,97.662a6.182,6.182,0,0,0,.089-.877A5.408,5.408,0,0,0,19.64,93.2a4,4,0,0,0-1.885-.481,4.111,4.111,0,0,0-4.082,3.5,4.774,4.774,0,0,0,2.108,9.062H27.668a3.987,3.987,0,0,0,3.993-3.9A3.923,3.923,0,0,0,28.984,97.662ZM27.668,104.4H15.782a3.908,3.908,0,0,1-3.9-3.9,3.864,3.864,0,0,1,2.37-3.588.381.381,0,0,0,.261-.35,3.175,3.175,0,0,1,3.2-2.977,4.578,4.578,0,0,1,1.843.439.414.414,0,0,0,.569-.089A4.509,4.509,0,0,1,28.2,96.7a4.664,4.664,0,0,1-.131,1.1.425.425,0,0,0,.308.569,3.009,3.009,0,0,1,2.37,2.977A3.05,3.05,0,0,1,27.668,104.4Z" transform="translate(-11 -91.4)" fill="#02466a"/>
      <path id="Path_946" data-name="Path 946" d="M127.672,218.89a.88.88,0,0,1,.881.877.3.3,0,1,0,.59,0,1.472,1.472,0,1,0-1.472,1.467.877.877,0,1,1-.881.877.3.3,0,1,0-.59,0,1.472,1.472,0,1,0,1.472-1.463.879.879,0,1,1,0-1.758Z" transform="translate(-121.342 -212.949)" fill="#02466a"/>
      <path id="Path_947" data-name="Path 947" d="M215.082,218.89a.3.3,0,1,0,0-.59H212.7a.293.293,0,0,0-.3.3v4.7a.293.293,0,0,0,.3.3h2.387a.3.3,0,1,0,0-.59H212.99v-1.758h2.091a.3.3,0,0,0,0-.59H212.99V218.89Z" transform="translate(-203.908 -212.949)" fill="#02466a"/>
      <path id="Path_948" data-name="Path 948" d="M293.49,218.3a1.783,1.783,0,0,0-1.438.81,3.321,3.321,0,0,0,0,3.668,1.682,1.682,0,0,0,2.876,0,3.322,3.322,0,0,0,0-3.668A1.783,1.783,0,0,0,293.49,218.3Zm0,4.693c-.772,0-1.4-.919-1.4-2.053s.628-2.054,1.4-2.054,1.4.919,1.4,2.054S294.262,222.993,293.49,222.993Z" transform="translate(-279.672 -212.949)" fill="#02466a"/>
    </g>
  </g>
</svg>
