<svg id="icon-24-link" xmlns="http://www.w3.org/2000/svg" width="24" height="24" viewBox="0 0 24 24">
  <rect id="Bounding_box" data-name="Bounding box" width="24" height="24" fill="rgba(255,255,255,0)"/>
  <path id="Icon_color" data-name="Icon color" d="M5.024,18H4.66A3.982,3.982,0,0,1,1.83,16.83l-.66-.66A3.976,3.976,0,0,1,0,13.35V13a4.026,4.026,0,0,1,1.18-2.84L4,7.331a1.351,1.351,0,0,1,1.9,0l.11.11a.5.5,0,0,1,0,.7L2.59,11.58A2.014,2.014,0,0,0,2,13v.339a2.014,2.014,0,0,0,.59,1.42l.65.65A2.017,2.017,0,0,0,4.66,16h.35a1.986,1.986,0,0,0,1.419-.59L9.86,12a.5.5,0,0,1,.7,0l.111.111a1.354,1.354,0,0,1,0,1.9L7.82,16.86A3.976,3.976,0,0,1,5.024,18ZM6.7,12.5a.5.5,0,0,1-.355-.149l-.7-.7a.5.5,0,0,1,0-.71l5.29-5.29a.5.5,0,0,1,.709,0l.7.7a.5.5,0,0,1,0,.71L7.06,12.35A.5.5,0,0,1,6.7,12.5Zm6.345-1.437a1.343,1.343,0,0,1-.95-.391L12,10.56a.5.5,0,0,1,0-.7L15.44,6.42A2.015,2.015,0,0,0,16,5V4.66a2.017,2.017,0,0,0-.59-1.42l-.65-.65A2.017,2.017,0,0,0,13.34,2H13a2.013,2.013,0,0,0-1.419.59L8.14,6a.5.5,0,0,1-.7,0l-.111-.11a1.356,1.356,0,0,1,0-1.9L10.16,1.15A3.973,3.973,0,0,1,12.965,0h.374a3.982,3.982,0,0,1,2.83,1.17l.66.66A3.977,3.977,0,0,1,18,4.66V5A4.025,4.025,0,0,1,16.82,7.84L14,10.67A1.343,1.343,0,0,1,13.05,11.061Z" transform="translate(3 3)"/>
</svg>
