<svg id="icon-32-income" xmlns="http://www.w3.org/2000/svg" width="32" height="32" viewBox="0 0 32 32">
  <g id="Icon.BG" fill="#fff" stroke="#5ebff2" stroke-width="1">
    <circle cx="16" cy="16" r="16" stroke="none"/>
    <circle cx="16" cy="16" r="15.5" fill="none"/>
  </g>
  <path id="money-bag-icon" d="M3.619,17A3.92,3.92,0,0,1,.456,15.406a3.014,3.014,0,0,1,0-3.187L4.471,5.844a1.327,1.327,0,0,1,1.1-.532h4.866a1.327,1.327,0,0,1,1.1.532l4.016,6.375a3.008,3.008,0,0,1,0,3.187A3.92,3.92,0,0,1,12.38,17ZM5.566,3.187a1.186,1.186,0,0,1-.852-.318L3.5,1.806C2.767,1.168,3.133,0,4.35,0h7.3A1.051,1.051,0,0,1,12.5,1.806L11.285,2.869a1.184,1.184,0,0,1-.852.318Z" transform="translate(8 7)" fill="#5ebff2"/>
</svg>
