<svg id="icon-24-storehouse" xmlns="http://www.w3.org/2000/svg" width="24" height="24" viewBox="0 0 24 24">
  <rect id="Rectangle_7192" data-name="Rectangle 7192" width="24" height="24" fill="rgba(255,255,255,0)"/>
  <g id="store-svgrepo-com" transform="translate(1.524 -52.184)">
    <path id="Path_858" data-name="Path 858" d="M20.624,71.713h-.982V62.5a1.354,1.354,0,0,0,.982-1.323v-.926h0V58.292h0V56.655A.655.655,0,0,0,19.969,56H.982a.655.655,0,0,0-.655.655v4.528A1.354,1.354,0,0,0,1.309,62.5v9.208H.327a.327.327,0,0,0,0,.655h20.3a.327.327,0,0,0,0-.655ZM1.964,62.506a1.3,1.3,0,0,0,.574-.319q.043-.04.081-.084a1.308,1.308,0,0,0,1.964,0,1.308,1.308,0,0,0,1.964,0,1.308,1.308,0,0,0,1.964,0,1.308,1.308,0,0,0,1.964,0,1.308,1.308,0,0,0,1.964,0l.016.017a.327.327,0,0,0-.016.1v6.875H1.964Zm15.713,1.678V62.505a1.311,1.311,0,0,0,.654-.4q.039.044.081.084a1.3,1.3,0,0,0,.574.318v6.588H17.678Zm1.672-2.292a.655.655,0,0,1-.69-.654v-.192l.823.823A.582.582,0,0,1,19.35,61.892Zm-.69-1.771V59.082l1.309,1.309v.791a.747.747,0,0,1-.032.215Zm1.309-.655L18.66,58.156V57.118l1.309,1.309ZM18,58.291h0v1.964h0v.982a.655.655,0,1,1-1.309,0v-.982h0V58.292h0V56.655H18ZM14.731,60.12V59.082l1.309,1.309v.846a.652.652,0,0,1-.023.169Zm1.309-.655-1.309-1.309V57.118l1.309,1.309Zm-1.309,1.581.824.824a.652.652,0,0,1-.824-.632ZM16.041,57.5l-.846-.846h.846Zm-1.964.79h0v1.964h0v.982a.655.655,0,1,1-1.309,0v-.982h0V58.292h0V56.655h1.309ZM10.8,60.12V59.082l1.309,1.309v.846a.652.652,0,0,1-.023.169Zm1.309-.655L10.8,58.156V57.118l1.309,1.309ZM10.8,61.046l.824.824a.652.652,0,0,1-.824-.632ZM12.112,57.5l-.846-.846h.846Zm-1.964.79h0v1.964h0v.982a.655.655,0,1,1-1.309,0v-.982h0V58.292h0V56.655h1.309ZM6.875,60.12V59.082l1.309,1.309v.846a.652.652,0,0,1-.023.169Zm1.309-.655L6.875,58.156V57.118l1.309,1.309ZM6.875,61.046l.824.824a.652.652,0,0,1-.824-.632ZM8.184,57.5l-.846-.846h.846Zm-1.964.79h0v1.964h0v.982a.655.655,0,1,1-1.309,0v-.982h0V58.292h0V56.655H6.22ZM4.256,59.465,2.946,58.156V57.118l1.309,1.309Zm0,.926v.846a.652.652,0,0,1-.023.169L2.946,60.12V59.082Zm-1.309.655.824.824a.652.652,0,0,1-.824-.632ZM4.256,57.5l-.846-.846h.846Zm8.839,5a1.306,1.306,0,0,0,1.309-.4,1.308,1.308,0,0,0,1.964,0,1.311,1.311,0,0,0,.655.4v1.351H13.095Zm4.583,7.244h1.309V70.4H18.66a.327.327,0,1,0,0,.655h.327v.655H17.678ZM19.969,57.5l-.846-.846h.846ZM.982,61.182V56.655H2.292v1.637h0v1.964h0v.982a.655.655,0,0,1-.69.654A.693.693,0,0,1,.982,61.182Zm.982,9.876h9.494a.327.327,0,1,0,0-.655H1.964v-.655H12.44v1.964H1.964Zm11.13.655v-7.2h3.928v7.2Z" transform="translate(0 0)"/>
    <path id="Path_859" data-name="Path 859" d="M328.327,336a.327.327,0,0,0-.327.327v.655a.327.327,0,0,0,.655,0v-.655A.327.327,0,0,0,328.327,336Z" transform="translate(-314.578 -268.542)"/>
    <path id="Path_860" data-name="Path 860" d="M96.559,232.1a.327.327,0,0,0-.463.463l4.583,4.583a.327.327,0,0,0,.463-.463Z" transform="translate(-92.072 -168.799)"/>
    <path id="Path_861" data-name="Path 861" d="M168.559,256.1a.327.327,0,1,0-.463.463l2.619,2.619a.327.327,0,0,0,.463-.463Z" transform="translate(-161.126 -191.817)"/>
  </g>
</svg>
