<svg id="icon-24-Company_Branch" data-name="icon-24-Company Branch" xmlns="http://www.w3.org/2000/svg" width="24" height="24" viewBox="0 0 24 24">
  <rect id="Rectangle_7278" data-name="Rectangle 7278" width="24" height="24" fill="rgba(255,255,255,0)"/>
  <g id="factory-company-svgrepo-com" transform="translate(1.916 1.912)">
    <g id="Group_17365" data-name="Group 17365" transform="translate(0 0.003)">
      <g id="Group_17364" data-name="Group 17364" transform="translate(0 0)">
        <path id="Path_10991" data-name="Path 10991" d="M18.854,3.24V1.976A1.975,1.975,0,0,0,16.881,0H11.619a1.976,1.976,0,0,0-1.86,1.315h-3.4a1.973,1.973,0,1,0,0,3.946h5.262a1.976,1.976,0,0,0,1.86-1.315H14.8l-1.108,7.015h-1.85V7.676a.658.658,0,0,0-1.052-.526L6.577,10.307V7.676A.658.658,0,0,0,5.525,7.15L.263,11.1A.658.658,0,0,0,0,11.622v7.892a.658.658,0,0,0,.658.658H19.511a.658.658,0,0,0,.658-.658V11.622C20.169,11.535,20.218,11.88,18.854,3.24Zm-.112,7.725H15.02l.208-1.315h3.307Zm-.415-2.631H15.435l.208-1.315h2.476ZM17.911,5.7H15.85l.277-1.754h1.507ZM12.935,2.634a.658.658,0,0,0-.658.658.658.658,0,0,1-.658.658H6.358a.658.658,0,0,1,0-1.315H10.3a.658.658,0,0,0,.658-.658.658.658,0,0,1,.658-.658h5.262a.658.658,0,0,1,.658.658v.658Zm5.919,16.223H1.315V11.951l3.946-2.96v2.631a.658.658,0,0,0,1.052.526l4.209-3.157v2.631a.658.658,0,0,0,.658.658h7.673Z" transform="translate(0 -0.003)" fill="#02466a"/>
      </g>
    </g>
    <g id="Group_17367" data-name="Group 17367" transform="translate(13.373 13.595)">
      <g id="Group_17366" data-name="Group 17366">
        <path id="Path_10992" data-name="Path 10992" d="M342.763,345.044h-2.631a.658.658,0,0,0-.658.658v2.631a.658.658,0,0,0,.658.658h2.631a.658.658,0,0,0,.658-.658V345.7A.658.658,0,0,0,342.763,345.044Zm-.658,2.631H340.79v-1.315h1.315Z" transform="translate(-339.475 -345.044)" fill="#02466a"/>
      </g>
    </g>
    <g id="Group_17369" data-name="Group 17369" transform="translate(8.111 13.595)">
      <g id="Group_17368" data-name="Group 17368">
        <path id="Path_10993" data-name="Path 10993" d="M209.2,345.044h-2.631a.658.658,0,0,0-.658.658v2.631a.658.658,0,0,0,.658.658H209.2a.658.658,0,0,0,.658-.658V345.7A.658.658,0,0,0,209.2,345.044Zm-.658,2.631h-1.315v-1.315h1.315Z" transform="translate(-205.911 -345.044)" fill="#02466a"/>
      </g>
    </g>
    <g id="Group_17371" data-name="Group 17371" transform="translate(2.85 13.595)">
      <g id="Group_17370" data-name="Group 17370">
        <path id="Path_10994" data-name="Path 10994" d="M75.636,345.044H73.006a.658.658,0,0,0-.658.658v2.631a.658.658,0,0,0,.658.658h2.631a.658.658,0,0,0,.658-.658V345.7A.658.658,0,0,0,75.636,345.044Zm-.658,2.631H73.663v-1.315h1.315Z" transform="translate(-72.348 -345.044)" fill="#02466a"/>
      </g>
    </g>
  </g>
</svg>
