<svg id="icon-24-twitter" xmlns="http://www.w3.org/2000/svg" width="24" height="24" viewBox="0 0 24 24">
  <rect id="Rectangle_7356" data-name="Rectangle 7356" width="24" height="24" fill="rgba(255,255,255,0)"/>
  <path id="Path_11015" data-name="Path 11015" d="M12.723,5.157a9,9,0,1,0,9,9A9,9,0,0,0,12.723,5.157Zm4.534,7.186c0,.1.007.195.007.293a6.451,6.451,0,0,1-9.93,5.435,4.639,4.639,0,0,0,.541.031,4.55,4.55,0,0,0,2.817-.971,2.271,2.271,0,0,1-2.118-1.576A2.215,2.215,0,0,0,9,15.6a2.254,2.254,0,0,0,.6-.079,2.27,2.27,0,0,1-1.82-2.224c0-.01,0-.019,0-.029a2.26,2.26,0,0,0,1.027.284,2.271,2.271,0,0,1-.7-3.029,6.439,6.439,0,0,0,4.675,2.37,2.27,2.27,0,0,1,3.865-2.069,4.53,4.53,0,0,0,1.44-.55,2.275,2.275,0,0,1-1,1.255,4.535,4.535,0,0,0,1.3-.357A4.582,4.582,0,0,1,17.257,12.343Z" transform="translate(-0.723 -2.157)" fill="#adb5b9"/>
</svg>
