<svg id="icon-24-create_link" data-name="icon-24-create link" xmlns="http://www.w3.org/2000/svg" width="24" height="24" viewBox="0 0 24 24">
  <rect id="Rectangle_7333" data-name="Rectangle 7333" width="24" height="24" fill="rgba(255,255,255,0)"/>
  <g id="Group_17448" data-name="Group 17448" transform="translate(-3.336 -3.338)">
    <path id="Path_11002" data-name="Path 11002" d="M31.737,55.966A8.989,8.989,0,0,1,20.3,55.843h2.269V54.436H18v4.573h1.407V56.916a10.282,10.282,0,0,0,5.734,2.392,9.162,9.162,0,0,0,.967.053A10.4,10.4,0,0,0,35.976,45.8l-1.337.422A8.962,8.962,0,0,1,31.737,55.966Z" transform="translate(-10.756 -33.652)" fill="#1dbbbe"/>
    <path id="Path_11003" data-name="Path 11003" d="M22.194,7.558a10.381,10.381,0,0,0-16.762,10.9l1.337-.422A8.976,8.976,0,0,1,21.314,8.666H19.028v1.407H23.6V5.5H22.194Z" transform="translate(0 0)" fill="#1dbbbe"/>
  </g>
</svg>
